<svg xmlns="http://www.w3.org/2000/svg" viewBox="0 0 32 32" width="32" height="32">
  <defs>
    <linearGradient id="shieldGradient" x1="0%" y1="0%" x2="100%" y2="100%">
      <stop offset="0%" style="stop-color:#64FFDA;stop-opacity:1" />
      <stop offset="100%" style="stop-color:#0A192F;stop-opacity:1" />
    </linearGradient>
  </defs>
  
  <!-- Shield Background -->
  <path d="M16 2L4 8v8c0 8 12 14 12 14s12-6 12-14V8L16 2z" fill="url(#shieldGradient)" stroke="#64FFDA" stroke-width="1"/>
  
  <!-- Shield Inner Design -->
  <path d="M16 6L8 10v6c0 6 8 10 8 10s8-4 8-10v-6l-8-4z" fill="none" stroke="#64FFDA" stroke-width="1.5" opacity="0.7"/>
  
  <!-- Center Dot -->
  <circle cx="16" cy="16" r="3" fill="#64FFDA" opacity="0.8"/>
  
  <!-- Sparkle Effect -->
  <path d="M12 8l1-1 1 1-1 1-1-1z" fill="#64FFDA" opacity="0.6"/>
  <path d="M20 8l1-1 1 1-1 1-1-1z" fill="#64FFDA" opacity="0.6"/>
  <path d="M16 4l1-1 1 1-1 1-1-1z" fill="#64FFDA" opacity="0.6"/>
</svg>




